HIERARCHY
ROOT Hips
{
 OFFSET 0.000000 0.000000 0.000000
 CHANNELS 6 Xposition Yposition Zposition Yrotation Xrotation Zrotation
 JOINT Chest
 {
  OFFSET 0.000000 9.585900 0.002600
  CHANNELS 3 Yrotation Xrotation Zrotation
  JOINT Chest2
  {
   OFFSET 0.000000 9.601200 -0.005300
   CHANNELS 3 Yrotation Xrotation Zrotation
   JOINT Chest3
   {
    OFFSET 0.000000 9.561800 0.000000
    CHANNELS 3 Yrotation Xrotation Zrotation
    JOINT Chest4
    {
     OFFSET 0.000000 9.552100 0.000000
     CHANNELS 3 Yrotation Xrotation Zrotation
     JOINT Neck
     {
      OFFSET 0.000000 14.453000 0.000000
      CHANNELS 3 Yrotation Xrotation Zrotation
      JOINT Head
      {
       OFFSET 0.000000 8.936500 -0.011300
       CHANNELS 3 Yrotation Xrotation Zrotation
       End Site
       {
        OFFSET 0.000000 17.073600 -0.006000
       }
      }
     }
     JOINT RightCollar
     {
      OFFSET -2.921100 9.558500 0.000000
      CHANNELS 3 Yrotation Xrotation Zrotation
      JOINT RightShoulder
      {
       OFFSET -13.519700 0.000000 0.000000
       CHANNELS 3 Yrotation Xrotation Zrotation
       JOINT RightElbow
       {
        OFFSET 0.000000 -29.696600 0.000000
        CHANNELS 3 Yrotation Xrotation Zrotation
        JOINT RightWrist
        {
         OFFSET 0.000000 -24.004700 0.000000
         CHANNELS 3 Yrotation Xrotation Zrotation
         End Site
         {
          OFFSET 0.000000 -17.728500 0.000000
         }
        }
       }
      }
     }
     JOINT LeftCollar
     {
      OFFSET 2.921100 9.558500 0.000000
      CHANNELS 3 Yrotation Xrotation Zrotation
      JOINT LeftShoulder
      {
       OFFSET 13.519700 0.000000 0.000000
       CHANNELS 3 Yrotation Xrotation Zrotation
       JOINT LeftElbow
       {
        OFFSET 0.000000 -29.696600 0.000000
        CHANNELS 3 Yrotation Xrotation Zrotation
        JOINT LeftWrist
        {
         OFFSET 0.000000 -24.004700 0.000000
         CHANNELS 3 Yrotation Xrotation Zrotation
         End Site
         {
          OFFSET 0.000000 -17.728500 0.000000
         }
        }
       }
      }
     }
    }
   }
  }
 }
 JOINT RightHip
 {
  OFFSET -7.771700 -0.012900 -0.001300
  CHANNELS 3 Yrotation Xrotation Zrotation
  JOINT RightKnee
  {
   OFFSET 0.000000 -40.869800 0.001200
   CHANNELS 3 Yrotation Xrotation Zrotation
   JOINT RightAnkle
   {
    OFFSET 0.000000 -39.717900 0.002100
    CHANNELS 3 Yrotation Xrotation Zrotation
    JOINT RightToe
    {
     OFFSET 0.000000 -4.965400 11.033500
     CHANNELS 3 Yrotation Xrotation Zrotation
     End Site
     {
      OFFSET 0.000000 -1.423100 5.872300
     }
    }
   }
  }
 }
 JOINT LeftHip
 {
  OFFSET 7.771700 -0.012900 -0.001300
  CHANNELS 3 Yrotation Xrotation Zrotation
  JOINT LeftKnee
  {
   OFFSET 0.000000 -40.869800 0.001200
   CHANNELS 3 Yrotation Xrotation Zrotation
   JOINT LeftAnkle
   {
    OFFSET 0.000000 -39.717900 0.002100
    CHANNELS 3 Yrotation Xrotation Zrotation
    JOINT LeftToe
    {
     OFFSET 0.000000 -4.965400 11.033500
     CHANNELS 3 Yrotation Xrotation Zrotation
     End Site
     {
      OFFSET 0.000000 -1.423100 5.872300
     }
    }
   }
  }
 }
}
MOTION
Frames: 9
Frame Time: 0.008333
0.000000 85.388000 0.000000 0.000000 -5.767877 0.000000 0.000000 11.653817 0.000000 0.000000 -5.885947 0.000000 0.000000 -0.000000 0.000000 0.000000 -0.000000 0.000000 0.000000 12.528835 0.000000 0.000000 0.711642 0.000000 0.000000 -0.000000 0.000000 0.000000 0.000000 -90.000000 0.000000 -2.309062 0.000000 0.000000 2.309062 0.000000 0.000000 -0.000000 0.000000 0.000000 -0.000000 90.000000 0.000000 -2.309062 0.000000 0.000000 2.309062 0.000000 0.000000 8.520406 0.000000 0.000000 1.905762 0.000000 -0.000000 -4.658285 0.000000 0.000000 -0.000000 0.000000 0.000000 8.520406 0.000000 0.000000 1.905762 0.000000 -0.000000 -4.658285 0.000000 0.000000 -0.000000 0.000000
-86.777518 55.709838 -45.797396 -171.744774 -13.990213 -1.157688 -0.549624 15.391917 -0.173586 -0.044084 1.446799 0.003686 -0.082470 2.430542 0.016138 -0.449179 13.724219 0.024192 -0.694102 10.071182 7.150078 -2.501316 -15.065366 8.000735 -0.529584 -1.940441 0.470971 3.240863 -2.978883 -7.251311 -71.318802 -60.841449 104.663114 -8.927624 14.910545 5.847484 -7.134809 -3.655144 3.580902 2.257498 -10.607438 7.369394 50.622533 -43.605517 -94.345083 12.929035 -10.827444 10.605442 -3.786094 -61.314867 7.902074 -36.148171 85.103856 -41.777288 -9.748987 -17.763669 13.805945 0.055551 -0.109204 0.030149 10.794529 -57.849084 -13.527579 89.527900 70.889199 90.894515 0.906619 -19.377323 -2.527668 0.015110 0.196610 0.010576
-86.777491 55.709977 -45.798106 -171.752335 -13.989387 -1.163295 -0.538162 15.391872 -0.170101 -0.041532 1.446508 0.006051 -0.082532 2.430558 0.014223 -0.439805 13.723967 0.026676 -0.727774 10.036854 7.045266 -2.513208 -15.086077 7.931731 -0.535262 -1.974908 0.461993 3.231977 -2.968650 -7.245570 -71.287172 -60.846423 104.643426 -8.922166 14.919941 5.850226 -7.152219 -3.673487 3.599741 2.251353 -10.631109 7.383406 50.627233 -43.597129 -94.337710 12.923054 -10.827527 10.598473 -3.789214 -61.314445 7.916560 -36.134371 85.101789 -41.761217 -9.756449 -17.761231 13.801312 0.059980 -0.108443 0.033867 10.786817 -57.853152 -13.513323 89.545092 70.894821 90.910666 0.915985 -19.378935 -2.530016 0.012656 0.194816 0.008998
-86.778553 55.710032 -45.798300 -171.750308 -13.985481 -1.165089 -0.535809 15.388811 -0.169473 -0.042750 1.446058 0.007075 -0.074950 2.429896 0.012145 -0.438515 13.721688 0.028594 -0.760708 10.004329 6.937325 -2.524175 -15.106163 7.859728 -0.540168 -2.008487 0.455809 3.228014 -2.956805 -7.250948 -71.261286 -60.845118 104.625967 -8.914111 14.931634 5.856132 -7.167076 -3.689276 3.617409 2.251032 -10.633633 7.383395 50.633409 -43.616664 -94.353007 12.918933 -10.832754 10.602652 -3.792105 -61.317131 7.920546 -36.139816 85.100035 -41.765456 -9.770830 -17.762427 13.802012 0.075077 -0.102972 0.035158 10.780841 -57.856014 -13.510981 89.539069 70.897690 90.903886 0.919721 -19.380070 -2.531040 0.012897 0.197372 0.008816
-86.779573 55.710122 -45.798469 -171.750061 -13.981044 -1.166879 -0.522403 15.385834 -0.165928 -0.052453 1.445120 0.008172 -0.076320 2.429514 0.012620 -0.430852 13.720375 0.029030 -0.787606 9.975638 6.847489 -2.533963 -15.133567 7.763252 -0.544304 -2.043439 0.448313 3.224088 -2.943088 -7.256436 -71.237279 -60.846444 104.612579 -8.907454 14.947541 5.861153 -7.183324 -3.724523 3.649652 2.257059 -10.618602 7.367477 50.655199 -43.684434 -94.396480 12.972220 -10.830798 10.628011 -3.771012 -61.320352 7.901413 -36.172777 85.092953 -41.785677 -9.762025 -17.767415 13.799925 0.040168 -0.099716 0.031655 10.774335 -57.860231 -13.506611 89.539160 70.897694 90.901666 0.919700 -19.379914 -2.532603 0.013209 0.197718 0.009682
-86.781296 55.710522 -45.799672 -171.745579 -13.983366 -1.165996 -0.518528 15.384785 -0.165912 -0.044553 1.443155 0.008072 -0.085231 2.433568 0.013824 -0.426786 13.716735 0.031872 -0.816482 9.947146 6.751618 -2.544790 -15.159424 7.664734 -0.550746 -2.073004 0.437306 3.225995 -2.931537 -7.257994 -71.209583 -60.853347 104.593507 -8.901471 14.959850 5.861174 -7.202473 -3.751883 3.679061 2.259793 -10.629390 7.364689 50.648426 -43.682030 -94.394545 13.003436 -10.833156 10.641538 -3.765733 -61.317592 7.892155 -36.319903 85.085453 -41.933645 -9.740044 -17.773409 13.802746 0.051279 -0.099724 0.028969 10.768268 -57.858133 -13.507447 89.545793 70.896531 90.906357 0.918076 -19.378100 -2.534344 0.013622 0.195572 0.010431
-86.782445 55.710906 -45.800681 -171.742417 -13.984238 -1.167023 -0.512497 15.376966 -0.163039 -0.046082 1.445993 0.008016 -0.081709 2.433734 0.012508 -0.421890 13.712765 0.031658 -0.846278 9.918060 6.658564 -2.555105 -15.183576 7.562740 -0.563469 -2.080170 0.437406 3.230814 -2.938319 -7.266537 -71.179160 -60.846265 104.564136 -8.878421 14.972808 5.864989 -7.230417 -3.803672 3.730621 2.277472 -10.634527 7.351812 50.624122 -43.657562 -94.373226 12.999726 -10.837893 10.641646 -3.764022 -61.315799 7.886328 -36.322229 85.086366 -41.934346 -9.727805 -17.779399 13.800709 0.035452 -0.100425 0.027235 10.761901 -57.857984 -13.505170 89.549091 70.899124 90.908210 0.920507 -19.374940 -2.535322 0.013798 0.192927 0.011134
-86.783827 55.711506 -45.802392 -171.742055 -13.990043 -1.165163 -0.505630 15.369243 -0.163678 -0.051046 1.457079 0.008817 -0.064408 2.404118 0.012166 -0.416527 13.715276 0.034510 -0.885007 9.902405 6.560175 -2.563940 -15.204559 7.457399 -0.586154 -2.067983 0.436341 3.230569 -2.974729 -7.293197 -71.099453 -60.813270 104.490402 -8.875193 14.974809 5.859850 -7.259576 -3.814102 3.761522 2.282488 -10.614258 7.334866 50.627298 -43.656213 -94.373453 12.950675 -10.846036 10.617743 -3.754874 -61.310258 7.879549 -36.358564 85.087721 -41.964467 -9.754282 -17.782809 13.803212 0.056696 -0.095375 0.028663 10.760928 -57.852058 -13.505562 89.558392 70.898444 90.916887 0.918797 -19.374538 -2.536931 0.015280 0.190344 0.011717
-86.784427 55.711980 -45.803479 -171.741545 -13.991884 -1.165703 -0.502633 15.363373 -0.163205 -0.045696 1.448515 0.009859 -0.068650 2.409598 0.011237 -0.410926 13.712903 0.036372 -0.910312 9.864598 6.456064 -2.570778 -15.220677 7.349861 -0.580218 -2.114130 0.423716 3.217845 -2.943696 -7.292488 -71.065356 -60.822335 104.464238 -8.892798 14.973602 5.848849 -7.270999 -3.815660 3.772701 2.284191 -10.639567 7.349607 50.627091 -43.630929 -94.365816 12.961021 -10.839642 10.617764 -3.757096 -61.307812 7.880315 -36.317833 85.092367 -41.925529 -9.746320 -17.787853 13.803413 0.051342 -0.095857 0.026014 10.756928 -57.850134 -13.502859 89.561629 70.898060 90.918959 0.918790 -19.373947 -2.538985 0.014042 0.190078 0.012145
